<svg width="800" height="1067" viewBox="0 0 800 1067" fill="none" xmlns="http://www.w3.org/2000/svg">
  <defs>
    <linearGradient id="bg" x1="0" y1="0" x2="800" y2="1067" gradientUnits="userSpaceOnUse">
      <stop stop-color="#1F2937"/>
      <stop offset="1" stop-color="#B45309"/>
    </linearGradient>
    <radialGradient id="glow" cx="0" cy="0" r="1" gradientUnits="userSpaceOnUse" gradientTransform="translate(240 230) rotate(60) scale(360 260)">
      <stop stop-color="#FDE68A" stop-opacity="0.85"/>
      <stop offset="1" stop-color="#FDE68A" stop-opacity="0"/>
    </radialGradient>
  </defs>
  <rect width="800" height="1067" rx="56" fill="url(#bg)"/>
  <rect width="800" height="1067" rx="56" fill="url(#glow)"/>
  <circle cx="400" cy="360" r="178" fill="#F8D7B7"/>
  <path d="M252 323C252 216 317 150 400 150C483 150 548 216 548 323C548 348 544 370 536 390C532 322 489 281 400 281C311 281 268 322 264 390C256 370 252 348 252 323Z" fill="#1F2937"/>
  <path d="M279 385C279 331 326 296 400 296C474 296 521 331 521 385V493C521 574 463 637 400 637C337 637 279 574 279 493V385Z" fill="#F8D7B7"/>
  <path d="M304 451C326 434 355 424 400 424C445 424 474 434 496 451C491 521 451 571 400 571C349 571 309 521 304 451Z" fill="#D97706" opacity="0.16"/>
  <rect x="212" y="700" width="376" height="254" rx="128" fill="#E5E7EB" fill-opacity="0.22"/>
  <path d="M198 918C226 790 304 730 400 730C496 730 574 790 602 918" stroke="#F8D7B7" stroke-width="68" stroke-linecap="round"/>
  <circle cx="336" cy="480" r="18" fill="#1F2937"/>
  <circle cx="464" cy="480" r="18" fill="#1F2937"/>
  <path d="M336 546C361 565 439 565 464 546" stroke="#1F2937" stroke-width="14" stroke-linecap="round"/>
  <path d="M200 863C260 814 340 789 400 789C460 789 540 814 600 863" stroke="#FDE68A" stroke-opacity="0.65" stroke-width="18" stroke-linecap="round"/>
</svg>